<?xml version="1.0" encoding="UTF-8"?>
<!--Generator: Apple Native CoreSVG 175.5-->
<!DOCTYPE svg
PUBLIC "-//W3C//DTD SVG 1.1//EN"
       "http://www.w3.org/Graphics/SVG/1.1/DTD/svg11.dtd">
<svg version="1.1" xmlns="http://www.w3.org/2000/svg" xmlns:xlink="http://www.w3.org/1999/xlink" width="15.9375" height="15.9453">
 <g>
  <rect height="15.9453" opacity="0" width="15.9375" x="0" y="0"/>
  <path d="M1.25781 4.65625C3.1875 6.71094 5.90625 7.89844 8.79688 7.89062C11.0781 7.88281 13.2422 7.125 15.0078 5.73438L14.5625 4.85938C12.9531 6.20312 10.9297 6.9375 8.79688 6.94531C6.03125 6.95312 3.44531 5.75 1.69531 3.6875ZM0.421875 9.11719C4.48438 12.5859 10.2969 13.2344 14.9844 10.7812L14.9609 9.71094C10.4062 12.3438 4.58594 11.6875 0.65625 8.05469ZM4.29688 14.4844L5.41406 14.7422C4.89062 13.4844 4.60938 12.1562 4.58594 10.7891C4.36719 6.90625 6.03906 3.20312 9.02344 0.757812L8.02344 0.367188C5.0625 2.99219 3.42969 6.8125 3.64062 10.8047C3.65625 12.0547 3.88281 13.2891 4.29688 14.4844ZM9.44531 15.2578L10.3281 14.8672C8.86719 12.8047 8.07031 10.3594 8.07031 7.80469C8.07031 5.38281 8.77344 3.07031 10.0938 1.10156L9.17188 0.773438C7.83594 2.86719 7.125 5.29688 7.125 7.80469C7.125 10.5 7.9375 13.0703 9.44531 15.2578ZM14.0469 12.3516L14.6797 11.6328C12.0547 10.125 10.4141 7.36719 10.375 4.30469C10.3594 3.21094 10.5547 2.125 10.9453 1.125L10.0312 0.867188C9.61719 1.96094 9.41406 3.11719 9.42969 4.3125C9.46875 7.63281 11.2266 10.6641 14.0469 12.3516ZM4.57812 7.79688C5.24219 7.79688 5.78906 7.24219 5.78906 6.57031C5.78906 5.89844 5.24219 5.35156 4.57812 5.35156C3.89844 5.35156 3.35156 5.89844 3.35156 6.57031C3.35156 7.24219 3.89844 7.79688 4.57812 7.79688ZM10.5625 8.44531C11.2188 8.44531 11.7578 7.90625 11.7578 7.23438C11.7578 6.57812 11.2188 6.03906 10.5625 6.03906C9.89062 6.03906 9.35156 6.57812 9.35156 7.23438C9.35156 7.90625 9.89062 8.44531 10.5625 8.44531ZM8.23438 12.9609C8.90625 12.9609 9.44531 12.4219 9.44531 11.7422C9.44531 11.0703 8.90625 10.5234 8.23438 10.5234C7.55469 10.5234 7.00781 11.0703 7.00781 11.7422C7.00781 12.4219 7.55469 12.9609 8.23438 12.9609ZM7.96875 15.9375C12.3281 15.9375 15.9375 12.3203 15.9375 7.96875C15.9375 3.60938 12.3203 0 7.96094 0C3.60938 0 0 3.60938 0 7.96875C0 12.3203 3.61719 15.9375 7.96875 15.9375ZM7.96875 14.875C4.19531 14.875 1.0625 11.7422 1.0625 7.96875C1.0625 4.19531 4.1875 1.0625 7.96094 1.0625C11.7344 1.0625 14.875 4.19531 14.875 7.96875C14.875 11.7422 11.7422 14.875 7.96875 14.875Z" fill="#8e8e93"/>
 </g>
</svg>
