<svg width="18" height="18" viewBox="0 0 18 18" fill="none" xmlns="http://www.w3.org/2000/svg">
<g clip-path="url(#clip0_2_17)">
<path d="M1.26275 4.67451C3.2 6.73726 5.92941 7.92941 8.83137 7.92157C11.1216 7.91373 13.2941 7.15294 15.0667 5.75686L14.6196 4.87843C13.0039 6.22745 10.9725 6.96471 8.83137 6.97255C6.0549 6.98039 3.45882 5.77255 1.70196 3.70196L1.26275 4.67451ZM0.423529 9.15294C4.50196 12.6353 10.3373 13.2863 15.0431 10.8235L15.0196 9.74902C10.4471 12.3922 4.60392 11.7333 0.658824 8.08627L0.423529 9.15294ZM4.31373 14.5412L5.43529 14.8C4.9098 13.5373 4.62745 12.2039 4.60392 10.8314C4.38431 6.93333 6.06275 3.21569 9.05882 0.760784L8.0549 0.368627C5.08235 3.00392 3.44314 6.83922 3.6549 10.8471C3.67059 12.102 3.89804 13.3412 4.31373 14.5412ZM9.48235 15.3176L10.3686 14.9255C8.90196 12.8549 8.10196 10.4 8.10196 7.83529C8.10196 5.40392 8.80784 3.08235 10.1333 1.10588L9.20784 0.776471C7.86667 2.87843 7.15294 5.31765 7.15294 7.83529C7.15294 10.5412 7.96863 13.1216 9.48235 15.3176ZM14.102 12.4L14.7373 11.6784C12.102 10.1647 10.4549 7.39608 10.4157 4.32157C10.4 3.22353 10.5961 2.13333 10.9882 1.12941L10.0706 0.870588C9.6549 1.96863 9.45098 3.12941 9.46667 4.32941C9.50588 7.66275 11.2706 10.7059 14.102 12.4ZM4.59608 7.82745C5.26275 7.82745 5.81177 7.27059 5.81177 6.59608C5.81177 5.92157 5.26275 5.37255 4.59608 5.37255C3.91373 5.37255 3.36471 5.92157 3.36471 6.59608C3.36471 7.27059 3.91373 7.82745 4.59608 7.82745ZM10.6039 8.47843C11.2627 8.47843 11.8039 7.93726 11.8039 7.26275C11.8039 6.60392 11.2627 6.06275 10.6039 6.06275C9.92941 6.06275 9.38824 6.60392 9.38824 7.26275C9.38824 7.93726 9.92941 8.47843 10.6039 8.47843ZM8.26667 13.0118C8.94118 13.0118 9.48235 12.4706 9.48235 11.7882C9.48235 11.1137 8.94118 10.5647 8.26667 10.5647C7.58431 10.5647 7.03529 11.1137 7.03529 11.7882C7.03529 12.4706 7.58431 13.0118 8.26667 13.0118ZM8 16C12.3765 16 16 12.3686 16 8C16 3.62353 12.3686 0 7.99216 0C3.62353 0 0 3.62353 0 8C0 12.3686 3.63137 16 8 16ZM8 14.9333C4.21176 14.9333 1.06667 11.7882 1.06667 8C1.06667 4.21176 4.20392 1.06667 7.99216 1.06667C11.7804 1.06667 14.9333 4.21176 14.9333 8C14.9333 11.7882 11.7882 14.9333 8 14.9333Z" fill="#8E8E93"/>
</g>
<path d="M16.6993 16.6244L13.387 13.3122M13.387 13.3122L9.99995 10M13.387 13.3122L9.99995 16.6244M13.387 13.3122L16.6992 10" stroke="#FF0000" stroke-width="2"/>
<defs>
<clipPath id="clip0_2_17">
<rect width="16" height="16.0078" fill="white"/>
</clipPath>
</defs>
</svg>
